<mxfile host="app.diagrams.net" modified="2023-01-29T08:31:57.745Z" agent="5.0 (Windows NT 10.0; Win64; x64) AppleWebKit/537.36 (KHTML, like Gecko) Chrome/108.0.0.0 Safari/537.36" etag="C2sYcU2-euK6fID4m9CB" version="20.8.13" type="github">
  <diagram id="Pxh6C-fd8CMLRoSRGeqW" name="第 1 页">
    <mxGraphModel dx="2876" dy="2180" grid="1" gridSize="10" guides="1" tooltips="1" connect="1" arrows="1" fold="1" page="1" pageScale="1" pageWidth="827" pageHeight="1169" math="0" shadow="0">
      <root>
        <mxCell id="0" />
        <mxCell id="1" parent="0" />
        <mxCell id="lgzTXmpoqVMhV6-8MdLU-1" value="AbilityTask_WaitTargetData" style="swimlane;fontStyle=1;childLayout=stackLayout;horizontal=1;startSize=26;fillColor=#F2CC8F;horizontalStack=0;resizeParent=1;resizeParentMax=0;resizeLast=0;collapsible=1;marginBottom=0;strokeColor=#E07A5F;labelBackgroundColor=none;fontColor=#393C56;rounded=1;" parent="1" vertex="1">
          <mxGeometry x="-200" y="160" width="230" height="266" as="geometry" />
        </mxCell>
        <mxCell id="4280RJjVP434RoOb6b6A-2" value="+InitializeTargetActor()" style="text;strokeColor=none;fillColor=none;align=left;verticalAlign=top;spacingLeft=4;spacingRight=4;overflow=hidden;rotatable=0;points=[[0,0.5],[1,0.5]];portConstraint=eastwest;labelBackgroundColor=none;fontColor=#393C56;rounded=1;fontStyle=1" parent="lgzTXmpoqVMhV6-8MdLU-1" vertex="1">
          <mxGeometry y="26" width="230" height="30" as="geometry" />
        </mxCell>
        <mxCell id="lgzTXmpoqVMhV6-8MdLU-2" value="+RegisterTargetDataCallbacks()" style="text;strokeColor=none;fillColor=none;align=left;verticalAlign=top;spacingLeft=4;spacingRight=4;overflow=hidden;rotatable=0;points=[[0,0.5],[1,0.5]];portConstraint=eastwest;labelBackgroundColor=none;fontColor=#393C56;rounded=1;fontStyle=1" parent="lgzTXmpoqVMhV6-8MdLU-1" vertex="1">
          <mxGeometry y="56" width="230" height="30" as="geometry" />
        </mxCell>
        <mxCell id="lgzTXmpoqVMhV6-8MdLU-3" value="+OnTargetDataReplicatedCallback()" style="text;strokeColor=none;fillColor=none;align=left;verticalAlign=top;spacingLeft=4;spacingRight=4;overflow=hidden;rotatable=0;points=[[0,0.5],[1,0.5]];portConstraint=eastwest;labelBackgroundColor=none;fontColor=#393C56;rounded=1;fontStyle=1" parent="lgzTXmpoqVMhV6-8MdLU-1" vertex="1">
          <mxGeometry y="86" width="230" height="30" as="geometry" />
        </mxCell>
        <mxCell id="lgzTXmpoqVMhV6-8MdLU-4" value="+OnTargetDataReplicatedCancelledCallback()" style="text;strokeColor=none;fillColor=none;align=left;verticalAlign=top;spacingLeft=4;spacingRight=4;overflow=hidden;rotatable=0;points=[[0,0.5],[1,0.5]];portConstraint=eastwest;labelBackgroundColor=none;fontColor=#393C56;rounded=1;fontStyle=1" parent="lgzTXmpoqVMhV6-8MdLU-1" vertex="1">
          <mxGeometry y="116" width="230" height="30" as="geometry" />
        </mxCell>
        <mxCell id="234qUHX6OkOsVtvtArmw-1" value="+OnTargetDataReadyCallback()" style="text;strokeColor=none;fillColor=none;align=left;verticalAlign=top;spacingLeft=4;spacingRight=4;overflow=hidden;rotatable=0;points=[[0,0.5],[1,0.5]];portConstraint=eastwest;labelBackgroundColor=none;fontColor=#393C56;rounded=1;fontStyle=1" parent="lgzTXmpoqVMhV6-8MdLU-1" vertex="1">
          <mxGeometry y="146" width="230" height="30" as="geometry" />
        </mxCell>
        <mxCell id="234qUHX6OkOsVtvtArmw-2" value="+OnTargetDataCancelledCallback()" style="text;strokeColor=none;fillColor=none;align=left;verticalAlign=top;spacingLeft=4;spacingRight=4;overflow=hidden;rotatable=0;points=[[0,0.5],[1,0.5]];portConstraint=eastwest;labelBackgroundColor=none;fontColor=#393C56;rounded=1;fontStyle=1" parent="lgzTXmpoqVMhV6-8MdLU-1" vertex="1">
          <mxGeometry y="176" width="230" height="30" as="geometry" />
        </mxCell>
        <mxCell id="4280RJjVP434RoOb6b6A-4" value="+FinalizeTargetActor() " style="text;strokeColor=none;fillColor=none;align=left;verticalAlign=top;spacingLeft=4;spacingRight=4;overflow=hidden;rotatable=0;points=[[0,0.5],[1,0.5]];portConstraint=eastwest;labelBackgroundColor=none;fontColor=#393C56;rounded=1;fontStyle=1" parent="lgzTXmpoqVMhV6-8MdLU-1" vertex="1">
          <mxGeometry y="206" width="230" height="30" as="geometry" />
        </mxCell>
        <mxCell id="4280RJjVP434RoOb6b6A-9" value="+BindToConfirmCancelTargeting()" style="text;strokeColor=none;fillColor=none;align=left;verticalAlign=top;spacingLeft=4;spacingRight=4;overflow=hidden;rotatable=0;points=[[0,0.5],[1,0.5]];portConstraint=eastwest;labelBackgroundColor=none;fontColor=#393C56;rounded=1;fontStyle=1" parent="lgzTXmpoqVMhV6-8MdLU-1" vertex="1">
          <mxGeometry y="236" width="230" height="30" as="geometry" />
        </mxCell>
        <mxCell id="lgzTXmpoqVMhV6-8MdLU-17" value="UAbilityTask" style="swimlane;fontStyle=1;childLayout=stackLayout;horizontal=1;startSize=26;fillColor=#F2CC8F;horizontalStack=0;resizeParent=1;resizeParentMax=0;resizeLast=0;collapsible=1;marginBottom=0;strokeColor=#E07A5F;labelBackgroundColor=none;fontColor=#393C56;rounded=1;" parent="1" vertex="1">
          <mxGeometry x="-200" y="5" width="230" height="102" as="geometry" />
        </mxCell>
        <mxCell id="lgzTXmpoqVMhV6-8MdLU-18" value="Activate()" style="text;strokeColor=none;fillColor=none;align=left;verticalAlign=top;spacingLeft=4;spacingRight=4;overflow=hidden;rotatable=0;points=[[0,0.5],[1,0.5]];portConstraint=eastwest;labelBackgroundColor=none;fontColor=#393C56;rounded=1;fontStyle=1" parent="lgzTXmpoqVMhV6-8MdLU-17" vertex="1">
          <mxGeometry y="26" width="230" height="24" as="geometry" />
        </mxCell>
        <mxCell id="lgzTXmpoqVMhV6-8MdLU-19" value="OnDestroy()" style="text;strokeColor=none;fillColor=none;align=left;verticalAlign=top;spacingLeft=4;spacingRight=4;overflow=hidden;rotatable=0;points=[[0,0.5],[1,0.5]];portConstraint=eastwest;labelBackgroundColor=none;fontColor=#393C56;rounded=1;fontStyle=1" parent="lgzTXmpoqVMhV6-8MdLU-17" vertex="1">
          <mxGeometry y="50" width="230" height="26" as="geometry" />
        </mxCell>
        <mxCell id="lgzTXmpoqVMhV6-8MdLU-21" value="DECLARE_DYNAMIC_MULTICAST()" style="text;strokeColor=none;fillColor=none;align=left;verticalAlign=top;spacingLeft=4;spacingRight=4;overflow=hidden;rotatable=0;points=[[0,0.5],[1,0.5]];portConstraint=eastwest;labelBackgroundColor=none;fontColor=#393C56;rounded=1;fontStyle=1" parent="lgzTXmpoqVMhV6-8MdLU-17" vertex="1">
          <mxGeometry y="76" width="230" height="26" as="geometry" />
        </mxCell>
        <mxCell id="lgzTXmpoqVMhV6-8MdLU-22" value="" style="endArrow=none;html=1;edgeStyle=orthogonalEdgeStyle;rounded=1;entryX=0.5;entryY=0;entryDx=0;entryDy=0;labelBackgroundColor=none;strokeColor=#E07A5F;fontColor=default;fontStyle=1" parent="1" source="lgzTXmpoqVMhV6-8MdLU-21" target="lgzTXmpoqVMhV6-8MdLU-1" edge="1">
          <mxGeometry relative="1" as="geometry">
            <mxPoint x="-80" y="60" as="sourcePoint" />
            <mxPoint x="80" y="60" as="targetPoint" />
            <Array as="points">
              <mxPoint x="-85" y="140" />
              <mxPoint x="-85" y="140" />
            </Array>
          </mxGeometry>
        </mxCell>
        <mxCell id="lgzTXmpoqVMhV6-8MdLU-23" value="parent" style="edgeLabel;resizable=0;html=1;align=left;verticalAlign=bottom;labelBackgroundColor=none;fontColor=#393C56;rounded=1;fontStyle=1" parent="lgzTXmpoqVMhV6-8MdLU-22" connectable="0" vertex="1">
          <mxGeometry x="-1" relative="1" as="geometry">
            <mxPoint x="5" y="18" as="offset" />
          </mxGeometry>
        </mxCell>
        <mxCell id="lgzTXmpoqVMhV6-8MdLU-24" value="child" style="edgeLabel;resizable=0;html=1;align=right;verticalAlign=bottom;labelBackgroundColor=none;fontColor=#393C56;rounded=1;fontStyle=1" parent="lgzTXmpoqVMhV6-8MdLU-22" connectable="0" vertex="1">
          <mxGeometry relative="1" as="geometry">
            <mxPoint x="35" y="26" as="offset" />
          </mxGeometry>
        </mxCell>
        <mxCell id="234qUHX6OkOsVtvtArmw-3" value="AActor" style="swimlane;fontStyle=1;childLayout=stackLayout;horizontal=1;startSize=26;fillColor=#dae8fc;horizontalStack=0;resizeParent=1;resizeParentMax=0;resizeLast=0;collapsible=1;marginBottom=0;strokeColor=#6c8ebf;labelBackgroundColor=none;rounded=1;" parent="1" vertex="1">
          <mxGeometry x="172" y="60" width="106" height="50" as="geometry" />
        </mxCell>
        <mxCell id="234qUHX6OkOsVtvtArmw-8" value="" style="endArrow=none;html=1;edgeStyle=orthogonalEdgeStyle;rounded=1;exitX=0.5;exitY=1;exitDx=0;exitDy=0;labelBackgroundColor=none;strokeColor=#6c8ebf;fontColor=default;fontStyle=1;fillColor=#dae8fc;" parent="1" source="234qUHX6OkOsVtvtArmw-3" edge="1">
          <mxGeometry relative="1" as="geometry">
            <mxPoint x="188" y="230" as="sourcePoint" />
            <mxPoint x="225" y="190" as="targetPoint" />
          </mxGeometry>
        </mxCell>
        <mxCell id="234qUHX6OkOsVtvtArmw-9" value="parent" style="edgeLabel;resizable=0;html=1;align=left;verticalAlign=bottom;labelBackgroundColor=none;fontColor=#393C56;rounded=1;fontStyle=1" parent="234qUHX6OkOsVtvtArmw-8" connectable="0" vertex="1">
          <mxGeometry x="-1" relative="1" as="geometry">
            <mxPoint x="-37" y="20" as="offset" />
          </mxGeometry>
        </mxCell>
        <mxCell id="234qUHX6OkOsVtvtArmw-10" value="child" style="edgeLabel;resizable=0;html=1;align=right;verticalAlign=bottom;labelBackgroundColor=none;fontColor=#393C56;rounded=1;fontStyle=1" parent="234qUHX6OkOsVtvtArmw-8" connectable="0" vertex="1">
          <mxGeometry relative="1" as="geometry">
            <mxPoint x="-5" y="30" as="offset" />
          </mxGeometry>
        </mxCell>
        <mxCell id="234qUHX6OkOsVtvtArmw-11" value="AGameplayAbilityTargetActor" style="swimlane;fontStyle=1;childLayout=stackLayout;horizontal=1;startSize=26;fillColor=#dae8fc;horizontalStack=0;resizeParent=1;resizeParentMax=0;resizeLast=0;collapsible=1;marginBottom=0;strokeColor=#6c8ebf;labelBackgroundColor=none;rounded=1;" parent="1" vertex="1">
          <mxGeometry x="110" y="178" width="270" height="236" as="geometry" />
        </mxCell>
        <mxCell id="234qUHX6OkOsVtvtArmw-12" value="+StartTargeting()" style="text;strokeColor=none;fillColor=none;align=left;verticalAlign=top;spacingLeft=4;spacingRight=4;overflow=hidden;rotatable=0;points=[[0,0.5],[1,0.5]];portConstraint=eastwest;labelBackgroundColor=none;fontColor=#393C56;rounded=1;fontStyle=1" parent="234qUHX6OkOsVtvtArmw-11" vertex="1">
          <mxGeometry y="26" width="270" height="30" as="geometry" />
        </mxCell>
        <mxCell id="4280RJjVP434RoOb6b6A-11" value="+RegisterTargetDataCallbacks()" style="text;strokeColor=none;fillColor=none;align=left;verticalAlign=top;spacingLeft=4;spacingRight=4;overflow=hidden;rotatable=0;points=[[0,0.5],[1,0.5]];portConstraint=eastwest;labelBackgroundColor=none;fontColor=#393C56;rounded=1;fontStyle=1" parent="234qUHX6OkOsVtvtArmw-11" vertex="1">
          <mxGeometry y="56" width="270" height="30" as="geometry" />
        </mxCell>
        <mxCell id="234qUHX6OkOsVtvtArmw-13" value="+OnTargetDataReplicatedCallback()" style="text;strokeColor=none;fillColor=none;align=left;verticalAlign=top;spacingLeft=4;spacingRight=4;overflow=hidden;rotatable=0;points=[[0,0.5],[1,0.5]];portConstraint=eastwest;labelBackgroundColor=none;fontColor=#393C56;rounded=1;fontStyle=1" parent="234qUHX6OkOsVtvtArmw-11" vertex="1">
          <mxGeometry y="86" width="270" height="30" as="geometry" />
        </mxCell>
        <mxCell id="234qUHX6OkOsVtvtArmw-14" value="+OnTargetDataReplicatedCancelledCallback()" style="text;strokeColor=none;fillColor=none;align=left;verticalAlign=top;spacingLeft=4;spacingRight=4;overflow=hidden;rotatable=0;points=[[0,0.5],[1,0.5]];portConstraint=eastwest;labelBackgroundColor=none;fontColor=#393C56;rounded=1;fontStyle=1" parent="234qUHX6OkOsVtvtArmw-11" vertex="1">
          <mxGeometry y="116" width="270" height="30" as="geometry" />
        </mxCell>
        <mxCell id="234qUHX6OkOsVtvtArmw-15" value="+OnTargetDataReadyCallback()" style="text;strokeColor=none;fillColor=none;align=left;verticalAlign=top;spacingLeft=4;spacingRight=4;overflow=hidden;rotatable=0;points=[[0,0.5],[1,0.5]];portConstraint=eastwest;labelBackgroundColor=none;fontColor=#393C56;rounded=1;fontStyle=1" parent="234qUHX6OkOsVtvtArmw-11" vertex="1">
          <mxGeometry y="146" width="270" height="30" as="geometry" />
        </mxCell>
        <mxCell id="234qUHX6OkOsVtvtArmw-16" value="+OnTargetDataCancelledCallback()" style="text;strokeColor=none;fillColor=none;align=left;verticalAlign=top;spacingLeft=4;spacingRight=4;overflow=hidden;rotatable=0;points=[[0,0.5],[1,0.5]];portConstraint=eastwest;labelBackgroundColor=none;fontColor=#393C56;rounded=1;fontStyle=1" parent="234qUHX6OkOsVtvtArmw-11" vertex="1">
          <mxGeometry y="176" width="270" height="30" as="geometry" />
        </mxCell>
        <mxCell id="4280RJjVP434RoOb6b6A-1" value="ShouldProduceTargetDataOnServer" style="text;strokeColor=none;fillColor=none;align=left;verticalAlign=top;spacingLeft=4;spacingRight=4;overflow=hidden;rotatable=0;points=[[0,0.5],[1,0.5]];portConstraint=eastwest;labelBackgroundColor=none;fontColor=#393C56;rounded=1;fontStyle=1" parent="234qUHX6OkOsVtvtArmw-11" vertex="1">
          <mxGeometry y="206" width="270" height="30" as="geometry" />
        </mxCell>
        <mxCell id="4280RJjVP434RoOb6b6A-7" value="LocallyClient/ Server&lt;br&gt;通过ASC的AbilityTargetDataMap同步回调" style="whiteSpace=wrap;html=1;fillColor=#F2CC8F;strokeColor=#E07A5F;labelBackgroundColor=none;fontColor=#393C56;rounded=1;fontStyle=1" parent="1" vertex="1">
          <mxGeometry x="-450" y="259" width="240" height="31" as="geometry" />
        </mxCell>
        <mxCell id="4280RJjVP434RoOb6b6A-12" value="FGameplayAbilityTargetData" style="swimlane;fontStyle=1;childLayout=stackLayout;horizontal=1;startSize=26;fillColor=#f8cecc;horizontalStack=0;resizeParent=1;resizeParentMax=0;resizeLast=0;collapsible=1;marginBottom=0;strokeColor=#b85450;labelBackgroundColor=none;rounded=1;" parent="1" vertex="1">
          <mxGeometry x="790" y="268" width="210" height="146" as="geometry" />
        </mxCell>
        <mxCell id="4280RJjVP434RoOb6b6A-13" value="+AddTargetDataToContext()" style="text;strokeColor=none;fillColor=none;align=left;verticalAlign=top;spacingLeft=4;spacingRight=4;overflow=hidden;rotatable=0;points=[[0,0.5],[1,0.5]];portConstraint=eastwest;labelBackgroundColor=none;fontColor=#393C56;rounded=1;fontStyle=1" parent="4280RJjVP434RoOb6b6A-12" vertex="1">
          <mxGeometry y="26" width="210" height="30" as="geometry" />
        </mxCell>
        <mxCell id="4280RJjVP434RoOb6b6A-16" value="+GetHitResult()" style="text;strokeColor=none;fillColor=none;align=left;verticalAlign=top;spacingLeft=4;spacingRight=4;overflow=hidden;rotatable=0;points=[[0,0.5],[1,0.5]];portConstraint=eastwest;labelBackgroundColor=none;fontColor=#393C56;rounded=1;fontStyle=1" parent="4280RJjVP434RoOb6b6A-12" vertex="1">
          <mxGeometry y="56" width="210" height="30" as="geometry" />
        </mxCell>
        <mxCell id="4280RJjVP434RoOb6b6A-15" value="+ GetActors()" style="text;strokeColor=none;fillColor=none;align=left;verticalAlign=top;spacingLeft=4;spacingRight=4;overflow=hidden;rotatable=0;points=[[0,0.5],[1,0.5]];portConstraint=eastwest;labelBackgroundColor=none;fontColor=#393C56;rounded=1;fontStyle=1" parent="4280RJjVP434RoOb6b6A-12" vertex="1">
          <mxGeometry y="86" width="210" height="30" as="geometry" />
        </mxCell>
        <mxCell id="4280RJjVP434RoOb6b6A-17" value="+ GetEndPointTransform()" style="text;strokeColor=none;fillColor=none;align=left;verticalAlign=top;spacingLeft=4;spacingRight=4;overflow=hidden;rotatable=0;points=[[0,0.5],[1,0.5]];portConstraint=eastwest;labelBackgroundColor=none;fontColor=#393C56;rounded=1;fontStyle=1" parent="4280RJjVP434RoOb6b6A-12" vertex="1">
          <mxGeometry y="116" width="210" height="30" as="geometry" />
        </mxCell>
        <mxCell id="4280RJjVP434RoOb6b6A-18" value="在子类中去构造特定的location/direction/origin信息" style="whiteSpace=wrap;html=1;fillColor=#f8cecc;strokeColor=#b85450;labelBackgroundColor=none;rounded=1;fontStyle=1" parent="1" vertex="1">
          <mxGeometry x="910" y="438" width="179" height="52" as="geometry" />
        </mxCell>
        <mxCell id="4280RJjVP434RoOb6b6A-19" value="FGameplayAbilityTargetDataHandle" style="swimlane;fontStyle=1;childLayout=stackLayout;horizontal=1;startSize=26;fillColor=#d5e8d4;horizontalStack=0;resizeParent=1;resizeParentMax=0;resizeLast=0;collapsible=1;marginBottom=0;strokeColor=#82b366;labelBackgroundColor=none;rounded=1;" parent="1" vertex="1">
          <mxGeometry x="480" y="268" width="270" height="56" as="geometry" />
        </mxCell>
        <mxCell id="4280RJjVP434RoOb6b6A-20" value="+Add(FGameplayAbilityTargetData* DataPtr)" style="text;strokeColor=none;fillColor=none;align=left;verticalAlign=top;spacingLeft=4;spacingRight=4;overflow=hidden;rotatable=0;points=[[0,0.5],[1,0.5]];portConstraint=eastwest;labelBackgroundColor=none;fontColor=#393C56;rounded=1;fontStyle=1" parent="4280RJjVP434RoOb6b6A-19" vertex="1">
          <mxGeometry y="26" width="270" height="30" as="geometry" />
        </mxCell>
        <mxCell id="4280RJjVP434RoOb6b6A-28" value="" style="endArrow=none;html=1;edgeStyle=orthogonalEdgeStyle;rounded=1;exitX=0.5;exitY=1;exitDx=0;exitDy=0;labelBackgroundColor=none;strokeColor=#b85450;fontColor=default;fontStyle=1;fillColor=#f8cecc;" parent="1" edge="1">
          <mxGeometry relative="1" as="geometry">
            <mxPoint x="894.5300000000002" y="414" as="sourcePoint" />
            <mxPoint x="894.5300000000002" y="514" as="targetPoint" />
            <Array as="points">
              <mxPoint x="894.5300000000002" y="454" />
              <mxPoint x="894.5300000000002" y="454" />
            </Array>
          </mxGeometry>
        </mxCell>
        <mxCell id="4280RJjVP434RoOb6b6A-29" value="parent" style="edgeLabel;resizable=0;html=1;align=left;verticalAlign=bottom;labelBackgroundColor=none;fontColor=#393C56;rounded=1;fontStyle=1" parent="4280RJjVP434RoOb6b6A-28" connectable="0" vertex="1">
          <mxGeometry relative="1" as="geometry">
            <mxPoint x="-45" y="-26" as="offset" />
          </mxGeometry>
        </mxCell>
        <mxCell id="4280RJjVP434RoOb6b6A-30" value="child" style="edgeLabel;resizable=0;html=1;align=right;verticalAlign=bottom;labelBackgroundColor=none;fontColor=#393C56;rounded=1;fontStyle=1" parent="4280RJjVP434RoOb6b6A-28" connectable="0" vertex="1">
          <mxGeometry x="1" relative="1" as="geometry">
            <mxPoint x="-7" y="-6" as="offset" />
          </mxGeometry>
        </mxCell>
        <mxCell id="4280RJjVP434RoOb6b6A-31" value="FGameplayAbilityTargetData_LocationInfo" style="swimlane;fontStyle=1;childLayout=stackLayout;horizontal=1;startSize=26;fillColor=#f8cecc;horizontalStack=0;resizeParent=1;resizeParentMax=0;resizeLast=0;collapsible=1;marginBottom=0;strokeColor=#b85450;labelBackgroundColor=none;rounded=1;" parent="1" vertex="1">
          <mxGeometry x="770" y="508" width="250" height="130" as="geometry" />
        </mxCell>
        <mxCell id="4280RJjVP434RoOb6b6A-32" value="SourceLocation" style="text;strokeColor=none;fillColor=none;align=left;verticalAlign=top;spacingLeft=4;spacingRight=4;overflow=hidden;rotatable=0;points=[[0,0.5],[1,0.5]];portConstraint=eastwest;labelBackgroundColor=none;fontColor=#393C56;rounded=1;fontStyle=1" parent="4280RJjVP434RoOb6b6A-31" vertex="1">
          <mxGeometry y="26" width="250" height="26" as="geometry" />
        </mxCell>
        <mxCell id="4280RJjVP434RoOb6b6A-33" value="TargetLocation" style="text;strokeColor=none;fillColor=none;align=left;verticalAlign=top;spacingLeft=4;spacingRight=4;overflow=hidden;rotatable=0;points=[[0,0.5],[1,0.5]];portConstraint=eastwest;labelBackgroundColor=none;fontColor=#393C56;rounded=1;fontStyle=1" parent="4280RJjVP434RoOb6b6A-31" vertex="1">
          <mxGeometry y="52" width="250" height="26" as="geometry" />
        </mxCell>
        <mxCell id="4280RJjVP434RoOb6b6A-36" value="+GetOrigin()" style="text;strokeColor=none;fillColor=none;align=left;verticalAlign=top;spacingLeft=4;spacingRight=4;overflow=hidden;rotatable=0;points=[[0,0.5],[1,0.5]];portConstraint=eastwest;labelBackgroundColor=none;fontColor=#393C56;rounded=1;fontStyle=1" parent="4280RJjVP434RoOb6b6A-31" vertex="1">
          <mxGeometry y="78" width="250" height="26" as="geometry" />
        </mxCell>
        <mxCell id="4280RJjVP434RoOb6b6A-37" value="+GetEndPoint()" style="text;strokeColor=none;fillColor=none;align=left;verticalAlign=top;spacingLeft=4;spacingRight=4;overflow=hidden;rotatable=0;points=[[0,0.5],[1,0.5]];portConstraint=eastwest;labelBackgroundColor=none;fontColor=#393C56;rounded=1;fontStyle=1" parent="4280RJjVP434RoOb6b6A-31" vertex="1">
          <mxGeometry y="104" width="250" height="26" as="geometry" />
        </mxCell>
        <mxCell id="4280RJjVP434RoOb6b6A-39" value="" style="endArrow=classic;html=1;rounded=1;strokeColor=#314354;exitX=0;exitY=0.5;exitDx=0;exitDy=0;labelBackgroundColor=none;fontColor=default;fontStyle=1;fillColor=#647687;" parent="1" source="234qUHX6OkOsVtvtArmw-14" edge="1">
          <mxGeometry relative="1" as="geometry">
            <mxPoint x="30" y="349.47" as="sourcePoint" />
            <mxPoint x="30" y="310" as="targetPoint" />
          </mxGeometry>
        </mxCell>
        <mxCell id="XHcfME6Rt02Tz7tJxL_J-2" value="" style="endArrow=classic;html=1;rounded=0;strokeColor=#E07A5F;fontSize=14;fontColor=#393C56;fillColor=#F2CC8F;exitX=0;exitY=0.5;exitDx=0;exitDy=0;entryX=1;entryY=0.5;entryDx=0;entryDy=0;" edge="1" parent="1" source="4280RJjVP434RoOb6b6A-20" target="234qUHX6OkOsVtvtArmw-14">
          <mxGeometry width="50" height="50" relative="1" as="geometry">
            <mxPoint x="520" y="320" as="sourcePoint" />
            <mxPoint x="570" y="270" as="targetPoint" />
          </mxGeometry>
        </mxCell>
        <mxCell id="XHcfME6Rt02Tz7tJxL_J-4" style="edgeStyle=orthogonalEdgeStyle;rounded=0;orthogonalLoop=1;jettySize=auto;html=1;exitX=0;exitY=0.5;exitDx=0;exitDy=0;entryX=1;entryY=0.5;entryDx=0;entryDy=0;strokeColor=#E07A5F;fontSize=14;fontColor=#393C56;fillColor=#F2CC8F;" edge="1" parent="1" source="4280RJjVP434RoOb6b6A-13" target="4280RJjVP434RoOb6b6A-20">
          <mxGeometry relative="1" as="geometry" />
        </mxCell>
        <mxCell id="XHcfME6Rt02Tz7tJxL_J-7" value="数据以TargetData&lt;br&gt;形式存储" style="ellipse;shape=cloud;whiteSpace=wrap;html=1;strokeColor=#b85450;fontSize=14;fillColor=#f8cecc;" vertex="1" parent="1">
          <mxGeometry x="812.5" y="188" width="165" height="71" as="geometry" />
        </mxCell>
        <mxCell id="XHcfME6Rt02Tz7tJxL_J-8" value="数据以TargetDataHandle&lt;br&gt;形式传输" style="ellipse;shape=cloud;whiteSpace=wrap;html=1;strokeColor=#82b366;fontSize=14;fillColor=#d5e8d4;" vertex="1" parent="1">
          <mxGeometry x="512.5" y="186" width="205" height="82" as="geometry" />
        </mxCell>
        <mxCell id="XHcfME6Rt02Tz7tJxL_J-14" value="FGameplayAbilityTargetData..." style="swimlane;fontStyle=1;childLayout=stackLayout;horizontal=1;startSize=26;fillColor=#f8cecc;horizontalStack=0;resizeParent=1;resizeParentMax=0;resizeLast=0;collapsible=1;marginBottom=0;strokeColor=#b85450;labelBackgroundColor=none;rounded=1;" vertex="1" parent="1">
          <mxGeometry x="1050" y="507" width="159" height="78" as="geometry" />
        </mxCell>
        <mxCell id="XHcfME6Rt02Tz7tJxL_J-15" value="..." style="text;strokeColor=none;fillColor=none;align=left;verticalAlign=top;spacingLeft=4;spacingRight=4;overflow=hidden;rotatable=0;points=[[0,0.5],[1,0.5]];portConstraint=eastwest;labelBackgroundColor=none;fontColor=#393C56;rounded=1;fontStyle=1" vertex="1" parent="XHcfME6Rt02Tz7tJxL_J-14">
          <mxGeometry y="26" width="159" height="26" as="geometry" />
        </mxCell>
        <mxCell id="XHcfME6Rt02Tz7tJxL_J-16" value="..." style="text;strokeColor=none;fillColor=none;align=left;verticalAlign=top;spacingLeft=4;spacingRight=4;overflow=hidden;rotatable=0;points=[[0,0.5],[1,0.5]];portConstraint=eastwest;labelBackgroundColor=none;fontColor=#393C56;rounded=1;fontStyle=1" vertex="1" parent="XHcfME6Rt02Tz7tJxL_J-14">
          <mxGeometry y="52" width="159" height="26" as="geometry" />
        </mxCell>
        <mxCell id="XHcfME6Rt02Tz7tJxL_J-17" value="AbilityTask创建和管理TargetActor" style="ellipse;shape=cloud;whiteSpace=wrap;html=1;strokeColor=#E07A5F;fontSize=14;fontColor=#393C56;fillColor=#F2CC8F;" vertex="1" parent="1">
          <mxGeometry x="-432.5" y="-10" width="205" height="82" as="geometry" />
        </mxCell>
      </root>
    </mxGraphModel>
  </diagram>
</mxfile>
